<?xml version="1.0" standalone="no"?>
<!DOCTYPE svg PUBLIC "-//W3C//DTD SVG 20010904//EN"
 "http://www.w3.org/TR/2001/REC-SVG-20010904/DTD/svg10.dtd">
<svg version="1.0" xmlns="http://www.w3.org/2000/svg"
 width="512.000000pt" height="512.000000pt" viewBox="0 0 512.000000 512.000000"
 preserveAspectRatio="xMidYMid meet">

<g transform="translate(0.000000,512.000000) scale(0.100000,-0.100000)"
fill="#000000" stroke="none">
<path d="M2390 5110 c-613 -38 -1193 -302 -1635 -745 -450 -449 -707 -1020
-745 -1653 -44 -735 223 -1435 745 -1957 449 -450 1020 -707 1653 -745 735
-44 1435 223 1957 745 450 449 707 1020 745 1653 44 735 -223 1435 -745 1957
-526 526 -1227 791 -1975 745z m328 -786 c115 -23 196 -66 273 -143 108 -109
161 -243 160 -411 0 -116 -29 -221 -99 -361 l-58 -116 43 -12 c57 -17 113 -79
113 -124 0 -24 -9 -41 -32 -64 -39 -37 -147 -91 -201 -99 -20 -4 -40 -11 -43
-15 -3 -5 9 -151 28 -325 l32 -316 103 -120 c57 -66 107 -127 112 -136 5 -10
14 -64 21 -122 14 -115 22 -140 48 -140 31 0 116 -46 167 -90 65 -56 123 -134
169 -226 l36 -73 0 -151 c0 -143 -1 -152 -25 -190 -95 -151 -288 -244 -600
-291 -124 -19 -686 -19 -810 0 -312 47 -505 140 -600 291 -24 38 -25 47 -25
190 l0 151 36 73 c46 92 104 170 169 226 51 44 136 90 167 90 26 0 34 25 48
140 7 58 16 112 21 122 5 9 55 70 112 136 l103 120 32 316 c19 174 31 320 28
325 -3 4 -23 11 -43 15 -54 8 -162 62 -200 99 -24 23 -33 40 -33 64 0 45 56
107 113 124 l43 12 -58 116 c-70 140 -99 245 -99 361 -1 282 165 498 426 553
93 20 228 21 323 1z"/>
</g>
</svg>
